<svg id="Layer_1" data-name="Layer 1" xmlns="http://www.w3.org/2000/svg" viewBox="0 0 504.12 540.27"><defs><style>.cls-1{fill:#e136ae;}.cls-2{fill:#32b6f3;}.cls-3{fill:#29d726;}.cls-4{fill:#a5047c;}.cls-5{fill:#328e39;}.cls-6{fill:#04779b;}</style></defs><path class="cls-1" d="M393.51,327.57C367,452.89,399.17,556,507.6,623.68S722.8,673.87,821.42,598c-8.83,60.55-103.88,136.33-188.78,149.55-115.7,18-224.54-37.83-275.12-141.15C312.15,513.7,327.57,389.69,393.51,327.57Z" transform="translate(-331.57 -210.6)"/><path class="cls-2" d="M654,547.89c-63.93-22.84-107.52-88.11-108.34-158.11s46.69-138.67,112.44-162.55c64.29-23.35,139.59-8.06,177.56,37.49C706.41,313.87,639.28,403.81,654,547.89Z" transform="translate(-331.57 -210.6)"/><path class="cls-3" d="M613.84,210.6c-85.79,57.06-125.13,133-103.84,230.13,21.92,100,91.45,153.39,192.77,167.83-55.79,31.07-146,15-207.8-36.06-62.63-51.72-87.06-148.87-57.85-230.06C463.06,270.35,538.88,212.53,613.84,210.6Z" transform="translate(-331.57 -210.6)"/><path class="cls-4" d="M821.42,598s-96,104.68-236.53,85.22A203.87,203.87,0,0,1,483.21,638c-56.45-46.65-140-147.36-89.7-310.45,0,0-52.11,198.21,109.67,293.55,2.37,1.41,4.73,2.82,7,4.32C530.81,638.85,669.63,720.63,821.42,598Z" transform="translate(-331.57 -210.6)"/><path class="cls-5" d="M613.84,210.6S451.61,299,522.15,480.45c0,0,34.17,109.59,180.62,128.11,0,0-132,5.83-202-119.37S553.82,231.41,613.84,210.6Z" transform="translate(-331.57 -210.6)"/><path class="cls-6" d="M835.68,264.72S623.9,325.54,654,547.89C654,547.89,552.06,336.18,835.68,264.72Z" transform="translate(-331.57 -210.6)"/></svg>